<mxfile host="app.diagrams.net" modified="2021-08-10T13:05:00.458Z" agent="5.0 (Macintosh; Intel Mac OS X 10_15_7) AppleWebKit/537.36 (KHTML, like Gecko) Chrome/92.0.4515.131 Safari/537.36" etag="lqkupPs7kn1dqmCtY0Sx" version="14.9.5" type="github">
  <diagram id="MzoD1pdsXGnQqIU2uFUW" name="第 1 页">
    <mxGraphModel dx="2719" dy="884" grid="1" gridSize="10" guides="1" tooltips="1" connect="1" arrows="1" fold="1" page="1" pageScale="1" pageWidth="827" pageHeight="1169" math="0" shadow="0">
      <root>
        <mxCell id="0" />
        <mxCell id="1" parent="0" />
        <mxCell id="7sJ5hEUUU9Sj4qeGpMjh-2" value="" style="rounded=0;whiteSpace=wrap;html=1;strokeWidth=0;fillColor=#f5f5f5;strokeColor=#666666;fontColor=#333333;glass=1;" vertex="1" parent="1">
          <mxGeometry x="-30" y="138" width="1480" height="1010" as="geometry" />
        </mxCell>
        <mxCell id="7sJ5hEUUU9Sj4qeGpMjh-7" value="" style="rounded=1;whiteSpace=wrap;html=1;strokeWidth=2;fillColor=#dae8fc;strokeColor=#6c8ebf;dashed=1;" vertex="1" parent="1">
          <mxGeometry x="80" y="550" width="990" height="560" as="geometry" />
        </mxCell>
        <mxCell id="7sJ5hEUUU9Sj4qeGpMjh-8" value="&lt;font style=&quot;font-size: 48px&quot;&gt;白龙马&lt;/font&gt;" style="text;html=1;strokeColor=none;fillColor=none;align=center;verticalAlign=middle;whiteSpace=wrap;rounded=0;dashed=1;" vertex="1" parent="1">
          <mxGeometry x="330" y="585" width="460" height="20" as="geometry" />
        </mxCell>
        <mxCell id="7sJ5hEUUU9Sj4qeGpMjh-11" value="" style="rounded=0;whiteSpace=wrap;html=1;strokeWidth=2;dashed=1;fillColor=#d5e8d4;strokeColor=#82b366;" vertex="1" parent="1">
          <mxGeometry x="120" y="630" width="420" height="430" as="geometry" />
        </mxCell>
        <mxCell id="7sJ5hEUUU9Sj4qeGpMjh-12" value="" style="rounded=0;whiteSpace=wrap;html=1;strokeWidth=2;dashed=1;fillColor=#fff2cc;strokeColor=#d6b656;" vertex="1" parent="1">
          <mxGeometry x="570" y="630" width="430" height="430" as="geometry" />
        </mxCell>
        <mxCell id="7sJ5hEUUU9Sj4qeGpMjh-14" value="&lt;font style=&quot;font-size: 36px&quot;&gt;组件&lt;/font&gt;" style="rounded=0;whiteSpace=wrap;html=1;dashed=1;strokeWidth=2;" vertex="1" parent="1">
          <mxGeometry x="630" y="660" width="330" height="40" as="geometry" />
        </mxCell>
        <mxCell id="7sJ5hEUUU9Sj4qeGpMjh-15" value="&lt;font style=&quot;font-size: 36px&quot;&gt;页面&lt;/font&gt;" style="rounded=0;whiteSpace=wrap;html=1;dashed=1;strokeWidth=2;" vertex="1" parent="1">
          <mxGeometry x="150" y="660" width="370" height="40" as="geometry" />
        </mxCell>
        <mxCell id="7sJ5hEUUU9Sj4qeGpMjh-17" value="&lt;font style=&quot;font-size: 24px&quot;&gt;脚手架创建&lt;/font&gt;" style="rounded=1;whiteSpace=wrap;html=1;dashed=1;strokeWidth=2;fillColor=#dae8fc;strokeColor=#6c8ebf;fontSize=22;" vertex="1" parent="1">
          <mxGeometry x="150" y="750" width="130" height="60" as="geometry" />
        </mxCell>
        <mxCell id="7sJ5hEUUU9Sj4qeGpMjh-18" value="&lt;font style=&quot;font-size: 24px&quot;&gt;版本控制&lt;/font&gt;" style="rounded=1;whiteSpace=wrap;html=1;dashed=1;strokeWidth=2;fillColor=#dae8fc;strokeColor=#6c8ebf;fontSize=22;" vertex="1" parent="1">
          <mxGeometry x="380" y="750" width="130" height="60" as="geometry" />
        </mxCell>
        <mxCell id="7sJ5hEUUU9Sj4qeGpMjh-19" value="&lt;font style=&quot;font-size: 24px&quot;&gt;构建发布&lt;/font&gt;" style="rounded=1;whiteSpace=wrap;html=1;dashed=1;strokeWidth=2;fillColor=#dae8fc;strokeColor=#6c8ebf;fontSize=22;" vertex="1" parent="1">
          <mxGeometry x="375" y="960" width="130" height="60" as="geometry" />
        </mxCell>
        <mxCell id="7sJ5hEUUU9Sj4qeGpMjh-20" value="&lt;font style=&quot;font-size: 24px&quot;&gt;预览&lt;/font&gt;" style="rounded=1;whiteSpace=wrap;html=1;dashed=1;strokeWidth=2;fillColor=#dae8fc;strokeColor=#6c8ebf;fontSize=22;" vertex="1" parent="1">
          <mxGeometry x="150" y="850" width="130" height="60" as="geometry" />
        </mxCell>
        <mxCell id="7sJ5hEUUU9Sj4qeGpMjh-21" value="&lt;font style=&quot;font-size: 24px&quot;&gt;运营配置&lt;/font&gt;" style="rounded=1;whiteSpace=wrap;html=1;dashed=1;strokeWidth=2;fillColor=#dae8fc;strokeColor=#6c8ebf;fontSize=22;" vertex="1" parent="1">
          <mxGeometry x="150" y="960" width="130" height="60" as="geometry" />
        </mxCell>
        <mxCell id="7sJ5hEUUU9Sj4qeGpMjh-22" value="&lt;span style=&quot;font-size: 24px&quot;&gt;多环境管控&lt;/span&gt;" style="rounded=1;whiteSpace=wrap;html=1;dashed=1;strokeWidth=2;fillColor=#dae8fc;strokeColor=#6c8ebf;fontSize=22;" vertex="1" parent="1">
          <mxGeometry x="370" y="850" width="140" height="60" as="geometry" />
        </mxCell>
        <mxCell id="7sJ5hEUUU9Sj4qeGpMjh-23" value="&lt;font style=&quot;font-size: 24px&quot;&gt;低代码&lt;/font&gt;" style="rounded=1;whiteSpace=wrap;html=1;dashed=1;strokeWidth=2;fillColor=#dae8fc;strokeColor=#6c8ebf;fontSize=22;" vertex="1" parent="1">
          <mxGeometry x="610" y="750" width="130" height="60" as="geometry" />
        </mxCell>
        <mxCell id="7sJ5hEUUU9Sj4qeGpMjh-24" value="&lt;font style=&quot;font-size: 24px&quot;&gt;拖拽构建&lt;/font&gt;" style="rounded=1;whiteSpace=wrap;html=1;dashed=1;strokeWidth=2;fillColor=#dae8fc;strokeColor=#6c8ebf;fontSize=22;" vertex="1" parent="1">
          <mxGeometry x="840" y="750" width="130" height="60" as="geometry" />
        </mxCell>
        <mxCell id="7sJ5hEUUU9Sj4qeGpMjh-29" value="&lt;span style=&quot;font-size: 24px&quot;&gt;vision&lt;/span&gt;" style="rounded=1;whiteSpace=wrap;html=1;dashed=1;strokeWidth=2;fillColor=#dae8fc;strokeColor=#6c8ebf;fontSize=22;" vertex="1" parent="1">
          <mxGeometry x="610" y="860" width="130" height="60" as="geometry" />
        </mxCell>
        <mxCell id="7sJ5hEUUU9Sj4qeGpMjh-30" value="&lt;span style=&quot;font-size: 24px&quot;&gt;组件脚手架&lt;/span&gt;" style="rounded=1;whiteSpace=wrap;html=1;dashed=1;strokeWidth=2;fillColor=#dae8fc;strokeColor=#6c8ebf;fontSize=22;" vertex="1" parent="1">
          <mxGeometry x="840" y="860" width="130" height="60" as="geometry" />
        </mxCell>
        <mxCell id="7sJ5hEUUU9Sj4qeGpMjh-32" value="&lt;span style=&quot;font-size: 24px&quot;&gt;发布&lt;/span&gt;" style="rounded=1;whiteSpace=wrap;html=1;dashed=1;strokeWidth=2;fillColor=#dae8fc;strokeColor=#6c8ebf;fontSize=22;" vertex="1" parent="1">
          <mxGeometry x="610" y="960" width="130" height="60" as="geometry" />
        </mxCell>
        <mxCell id="7sJ5hEUUU9Sj4qeGpMjh-33" value="&lt;span style=&quot;font-size: 24px&quot;&gt;自动文档生成&lt;/span&gt;" style="rounded=1;whiteSpace=wrap;html=1;dashed=1;strokeWidth=2;fillColor=#dae8fc;strokeColor=#6c8ebf;fontSize=22;" vertex="1" parent="1">
          <mxGeometry x="820" y="960" width="150" height="60" as="geometry" />
        </mxCell>
        <mxCell id="7sJ5hEUUU9Sj4qeGpMjh-34" value="&lt;span style=&quot;font-size: 24px&quot;&gt;通用组件&lt;/span&gt;" style="rounded=1;whiteSpace=wrap;html=1;dashed=1;strokeWidth=2;fillColor=#dae8fc;strokeColor=#6c8ebf;fontSize=22;" vertex="1" parent="1">
          <mxGeometry x="1111" y="960" width="139" height="60" as="geometry" />
        </mxCell>
        <mxCell id="7sJ5hEUUU9Sj4qeGpMjh-38" value="" style="rounded=1;whiteSpace=wrap;html=1;strokeWidth=2;dashed=1;fillColor=#d5e8d4;strokeColor=#82b366;" vertex="1" parent="1">
          <mxGeometry x="80" y="170" width="830" height="340" as="geometry" />
        </mxCell>
        <mxCell id="7sJ5hEUUU9Sj4qeGpMjh-39" value="" style="rounded=1;whiteSpace=wrap;html=1;strokeWidth=2;dashed=1;fillColor=#fff2cc;strokeColor=#d6b656;glass=0;sketch=0;" vertex="1" parent="1">
          <mxGeometry x="930" y="170" width="370" height="335" as="geometry" />
        </mxCell>
        <mxCell id="7sJ5hEUUU9Sj4qeGpMjh-41" value="&lt;span style=&quot;font-size: 36px&quot;&gt;基础研发工具&lt;/span&gt;" style="rounded=0;whiteSpace=wrap;html=1;dashed=1;strokeWidth=2;" vertex="1" parent="1">
          <mxGeometry x="190" y="202.5" width="650" height="60" as="geometry" />
        </mxCell>
        <mxCell id="7sJ5hEUUU9Sj4qeGpMjh-42" value="&lt;font style=&quot;font-size: 24px&quot;&gt;墨刀、云真机&lt;/font&gt;" style="rounded=1;whiteSpace=wrap;html=1;dashed=1;strokeWidth=2;fillColor=#dae8fc;strokeColor=#6c8ebf;fontSize=22;" vertex="1" parent="1">
          <mxGeometry x="560" y="410" width="150" height="60" as="geometry" />
        </mxCell>
        <mxCell id="7sJ5hEUUU9Sj4qeGpMjh-43" value="&lt;font style=&quot;font-size: 24px&quot;&gt;jsbrideg&lt;/font&gt;" style="rounded=1;whiteSpace=wrap;html=1;dashed=1;strokeWidth=2;fillColor=#dae8fc;strokeColor=#6c8ebf;fontSize=22;" vertex="1" parent="1">
          <mxGeometry x="990" y="190" width="130" height="60" as="geometry" />
        </mxCell>
        <mxCell id="7sJ5hEUUU9Sj4qeGpMjh-44" value="&lt;font style=&quot;font-size: 24px&quot;&gt;UT打点&lt;/font&gt;" style="rounded=1;whiteSpace=wrap;html=1;dashed=1;strokeWidth=2;fillColor=#dae8fc;strokeColor=#6c8ebf;fontSize=22;" vertex="1" parent="1">
          <mxGeometry x="350" y="410" width="160" height="60" as="geometry" />
        </mxCell>
        <mxCell id="7sJ5hEUUU9Sj4qeGpMjh-45" value="&lt;span style=&quot;font-size: 24px&quot;&gt;分享&lt;/span&gt;" style="rounded=1;whiteSpace=wrap;html=1;dashed=1;strokeWidth=2;fillColor=#dae8fc;strokeColor=#6c8ebf;fontSize=22;" vertex="1" parent="1">
          <mxGeometry x="740" y="303" width="120" height="60" as="geometry" />
        </mxCell>
        <mxCell id="7sJ5hEUUU9Sj4qeGpMjh-46" value="&lt;span style=&quot;font-size: 24px&quot;&gt;布网&lt;/span&gt;" style="rounded=1;whiteSpace=wrap;html=1;dashed=1;strokeWidth=2;fillColor=#dae8fc;strokeColor=#6c8ebf;fontSize=22;" vertex="1" parent="1">
          <mxGeometry x="354" y="300" width="126" height="63" as="geometry" />
        </mxCell>
        <mxCell id="7sJ5hEUUU9Sj4qeGpMjh-48" value="&lt;span style=&quot;font-size: 24px&quot;&gt;啄木鸟监控&lt;/span&gt;" style="rounded=1;whiteSpace=wrap;html=1;dashed=1;strokeWidth=2;fillColor=#dae8fc;strokeColor=#6c8ebf;fontSize=22;" vertex="1" parent="1">
          <mxGeometry x="150" y="410" width="146" height="60" as="geometry" />
        </mxCell>
        <mxCell id="7sJ5hEUUU9Sj4qeGpMjh-49" value="&lt;font style=&quot;font-size: 24px&quot;&gt;ucache&lt;/font&gt;" style="rounded=1;whiteSpace=wrap;html=1;dashed=1;strokeWidth=2;fillColor=#dae8fc;strokeColor=#6c8ebf;fontSize=22;" vertex="1" parent="1">
          <mxGeometry x="990" y="265" width="130" height="60" as="geometry" />
        </mxCell>
        <mxCell id="7sJ5hEUUU9Sj4qeGpMjh-50" value="&lt;span style=&quot;font-size: 24px&quot;&gt;自有业务参&lt;/span&gt;" style="rounded=1;whiteSpace=wrap;html=1;dashed=1;strokeWidth=2;fillColor=#dae8fc;strokeColor=#6c8ebf;fontSize=22;" vertex="1" parent="1">
          <mxGeometry x="990" y="430" width="130" height="60" as="geometry" />
        </mxCell>
        <mxCell id="7sJ5hEUUU9Sj4qeGpMjh-51" value="&lt;font style=&quot;font-size: 24px&quot;&gt;compass&lt;/font&gt;" style="rounded=1;whiteSpace=wrap;html=1;dashed=1;strokeWidth=2;fillColor=#dae8fc;strokeColor=#6c8ebf;fontSize=22;" vertex="1" parent="1">
          <mxGeometry x="990" y="350" width="130" height="60" as="geometry" />
        </mxCell>
        <mxCell id="7sJ5hEUUU9Sj4qeGpMjh-55" value="&lt;span style=&quot;font-size: 24px&quot;&gt;MTOP&lt;/span&gt;" style="rounded=1;whiteSpace=wrap;html=1;dashed=1;strokeWidth=2;fillColor=#dae8fc;strokeColor=#6c8ebf;fontSize=22;" vertex="1" parent="1">
          <mxGeometry x="570" y="303" width="120" height="60" as="geometry" />
        </mxCell>
        <mxCell id="7sJ5hEUUU9Sj4qeGpMjh-56" value="&lt;span style=&quot;font-size: 24px&quot;&gt;绝影&lt;/span&gt;" style="rounded=1;whiteSpace=wrap;html=1;dashed=1;strokeWidth=2;fillColor=#dae8fc;strokeColor=#6c8ebf;fontSize=22;" vertex="1" parent="1">
          <mxGeometry x="150" y="300" width="146" height="60" as="geometry" />
        </mxCell>
        <mxCell id="7sJ5hEUUU9Sj4qeGpMjh-58" value="" style="rounded=1;whiteSpace=wrap;html=1;strokeWidth=2;fillColor=#dae8fc;strokeColor=#6c8ebf;dashed=1;" vertex="1" parent="1">
          <mxGeometry x="1095" y="550" width="210" height="550" as="geometry" />
        </mxCell>
        <mxCell id="7sJ5hEUUU9Sj4qeGpMjh-59" value="&lt;span style=&quot;font-size: 48px&quot;&gt;汗马&lt;/span&gt;" style="text;html=1;strokeColor=none;fillColor=none;align=center;verticalAlign=middle;whiteSpace=wrap;rounded=0;dashed=1;" vertex="1" parent="1">
          <mxGeometry x="975" y="590" width="460" height="20" as="geometry" />
        </mxCell>
        <mxCell id="7sJ5hEUUU9Sj4qeGpMjh-60" value="&lt;font style=&quot;font-size: 24px&quot;&gt;构建发布&lt;/font&gt;" style="rounded=1;whiteSpace=wrap;html=1;dashed=1;strokeWidth=2;fillColor=#fff2cc;strokeColor=#d6b656;fontSize=22;" vertex="1" parent="1">
          <mxGeometry x="1120" y="680" width="160" height="60" as="geometry" />
        </mxCell>
        <mxCell id="7sJ5hEUUU9Sj4qeGpMjh-62" value="&lt;font style=&quot;font-size: 24px&quot;&gt;脚手架&lt;/font&gt;" style="rounded=1;whiteSpace=wrap;html=1;dashed=1;strokeWidth=2;fillColor=#fff2cc;strokeColor=#d6b656;fontSize=22;" vertex="1" parent="1">
          <mxGeometry x="1120" y="820" width="160" height="60" as="geometry" />
        </mxCell>
        <mxCell id="7sJ5hEUUU9Sj4qeGpMjh-63" value="&lt;font style=&quot;font-size: 24px&quot;&gt;版本控制&lt;/font&gt;" style="rounded=1;whiteSpace=wrap;html=1;dashed=1;strokeWidth=2;fillColor=#fff2cc;strokeColor=#d6b656;fontSize=22;" vertex="1" parent="1">
          <mxGeometry x="1125" y="960" width="160" height="60" as="geometry" />
        </mxCell>
        <mxCell id="7sJ5hEUUU9Sj4qeGpMjh-66" value="&lt;span style=&quot;font-size: 36px&quot;&gt;端特性结合&lt;/span&gt;" style="rounded=0;whiteSpace=wrap;html=1;dashed=1;strokeWidth=2;" vertex="1" parent="1">
          <mxGeometry x="1190" y="202.5" width="60" height="275" as="geometry" />
        </mxCell>
        <mxCell id="7sJ5hEUUU9Sj4qeGpMjh-70" value="&lt;font style=&quot;font-size: 24px&quot;&gt;aone&lt;/font&gt;" style="rounded=1;whiteSpace=wrap;html=1;dashed=1;strokeWidth=2;fillColor=#dae8fc;strokeColor=#6c8ebf;fontSize=22;" vertex="1" parent="1">
          <mxGeometry x="780" y="410" width="80" height="60" as="geometry" />
        </mxCell>
      </root>
    </mxGraphModel>
  </diagram>
</mxfile>
